<svg width="60" height="13" viewBox="0 0 60 13" fill="none" xmlns="http://www.w3.org/2000/svg">
<path d="M4.54816 12.168C3.76416 12.168 3.08016 11.98 2.49616 11.604C1.91216 11.22 1.46016 10.692 1.14016 10.02C0.820156 9.34 0.660156 8.556 0.660156 7.668C0.660156 6.772 0.820156 5.988 1.14016 5.316C1.46816 4.636 1.91616 4.108 2.48416 3.732C3.05216 3.356 3.70416 3.168 4.44016 3.168C5.00016 3.168 5.52816 3.276 6.02416 3.492C6.52016 3.7 6.91616 3.984 7.21216 4.344C7.17216 4.488 7.07616 4.644 6.92416 4.812C6.78016 4.972 6.63616 5.084 6.49216 5.148C6.24416 4.86 5.94816 4.64 5.60416 4.488C5.26816 4.328 4.90016 4.248 4.50016 4.248C3.95616 4.248 3.48016 4.388 3.07216 4.668C2.67216 4.948 2.36016 5.344 2.13616 5.856C1.92016 6.36 1.81216 6.96 1.81216 7.656C1.81216 8.36 1.92416 8.972 2.14816 9.492C2.38016 10.004 2.70016 10.4 3.10816 10.68C3.52416 10.952 4.00816 11.088 4.56016 11.088C5.43216 11.088 6.12816 10.756 6.64816 10.092C6.77616 10.148 6.91616 10.244 7.06816 10.38C7.22816 10.508 7.34816 10.64 7.42816 10.776C7.13216 11.216 6.73216 11.56 6.22816 11.808C5.72416 12.048 5.16416 12.168 4.54816 12.168Z" fill="#2563EB"/>
<path d="M8.6635 9.888C8.3515 9.656 8.1755 9.336 8.1355 8.928C8.5195 8.696 8.8715 8.42 9.1915 8.1V2.652C9.1915 1.852 9.3595 1.236 9.6955 0.804004C10.0315 0.372004 10.5155 0.160004 11.1475 0.168004C11.7235 0.176004 12.1715 0.400004 12.4915 0.840004C12.8195 1.28 12.9835 1.852 12.9835 2.556C12.9835 3.18 12.8955 3.824 12.7195 4.488C12.5435 5.144 12.2755 5.8 11.9155 6.456C11.9875 6.448 12.0635 6.444 12.1435 6.444C12.7435 6.444 13.2195 6.656 13.5715 7.08C13.9315 7.504 14.1115 8.072 14.1115 8.784V9.816C14.1115 10.28 14.1675 10.616 14.2795 10.824C14.3995 11.032 14.5955 11.136 14.8675 11.136C14.9955 11.136 15.0875 11.188 15.1435 11.292C15.1995 11.388 15.2275 11.512 15.2275 11.664C15.2275 11.816 15.1875 11.936 15.1075 12.024C15.0355 12.12 14.9315 12.168 14.7955 12.168C14.2195 12.168 13.7755 11.984 13.4635 11.616C13.1595 11.24 13.0075 10.712 13.0075 10.032V8.76C13.0075 8.352 12.9155 8.036 12.7315 7.812C12.5555 7.58 12.3035 7.464 11.9755 7.464C11.6555 7.464 11.3675 7.572 11.1115 7.788C10.8555 7.996 10.6515 8.284 10.4995 8.652C10.3475 9.02 10.2675 9.444 10.2595 9.924V12C10.1795 12.024 10.0915 12.044 9.9955 12.06C9.8995 12.076 9.8075 12.084 9.7195 12.084C9.5435 12.084 9.3675 12.056 9.1915 12V9.516C8.9835 9.692 8.8075 9.816 8.6635 9.888ZM10.2235 2.64V7.308C10.7915 6.476 11.2235 5.656 11.5195 4.848C11.8155 4.032 11.9635 3.264 11.9635 2.544C11.9635 2.096 11.8875 1.756 11.7355 1.524C11.5915 1.284 11.3795 1.164 11.0995 1.164C10.5155 1.164 10.2235 1.656 10.2235 2.64Z" fill="#2563EB"/>
<path d="M14.7987 12.168C14.6947 12.168 14.6107 12.12 14.5467 12.024C14.4827 11.928 14.4507 11.804 14.4507 11.652C14.4507 11.308 14.5947 11.136 14.8827 11.136C15.2347 11.136 15.5467 10.992 15.8187 10.704C16.0987 10.408 16.3187 10.008 16.4787 9.504C16.6467 9 16.7307 8.44 16.7307 7.824C16.7307 7.68 16.7227 7.548 16.7067 7.428C16.6907 7.308 16.6707 7.208 16.6467 7.128C16.5747 7.056 16.4947 6.94 16.4067 6.78C16.3267 6.62 16.2547 6.452 16.1907 6.276C16.1347 6.092 16.1067 5.944 16.1067 5.832C16.2027 5.68 16.3547 5.564 16.5627 5.484C16.7787 5.396 17.0147 5.372 17.2707 5.412C17.4227 5.692 17.5467 6.044 17.6427 6.468C17.8827 6.46 18.2067 6.408 18.6147 6.312C18.8707 6.256 19.0747 6.22 19.2267 6.204C19.3867 6.18 19.5227 6.168 19.6347 6.168C20.0667 6.168 20.4067 6.332 20.6547 6.66C20.9027 6.98 21.0267 7.416 21.0267 7.968V9.9C21.0267 10.364 21.0867 10.688 21.2067 10.872C21.3347 11.048 21.5187 11.136 21.7587 11.136C21.8707 11.136 21.9547 11.184 22.0107 11.28C22.0747 11.376 22.1067 11.504 22.1067 11.664C22.1067 11.792 22.0707 11.908 21.9987 12.012C21.9347 12.116 21.8267 12.168 21.6747 12.168C21.1867 12.168 20.7747 12.004 20.4387 11.676C20.1027 11.34 19.9347 10.792 19.9347 10.032V8.172C19.9347 7.812 19.8947 7.56 19.8147 7.416C19.7347 7.272 19.5907 7.2 19.3827 7.2C19.3107 7.2 19.2307 7.208 19.1427 7.224C19.0547 7.24 18.8987 7.272 18.6747 7.32C18.2827 7.4 17.9867 7.448 17.7867 7.464C17.7947 7.592 17.7987 7.72 17.7987 7.848C17.7987 8.712 17.6747 9.468 17.4267 10.116C17.1787 10.764 16.8267 11.268 16.3707 11.628C15.9227 11.988 15.3987 12.168 14.7987 12.168Z" fill="#2563EB"/>
<path d="M21.7616 11.136C21.9296 11.136 22.1096 11.084 22.3016 10.98C22.4936 10.876 22.6736 10.716 22.8416 10.5C23.0416 10.228 23.1856 9.916 23.2736 9.564C23.3696 9.212 23.4296 8.856 23.4536 8.496V6.336C23.5256 6.312 23.6096 6.292 23.7056 6.276C23.8016 6.26 23.9016 6.252 24.0056 6.252C24.1896 6.252 24.3696 6.28 24.5456 6.336V9.792C24.5456 10.216 24.6096 10.548 24.7376 10.788C24.8736 11.02 25.0976 11.136 25.4096 11.136C25.5456 11.136 25.6376 11.192 25.6856 11.304C25.7336 11.416 25.7576 11.536 25.7576 11.664C25.7576 11.792 25.7216 11.908 25.6496 12.012C25.5856 12.116 25.4776 12.168 25.3256 12.168C24.4936 12.168 23.9536 11.776 23.7056 10.992C23.5936 11.176 23.4736 11.332 23.3456 11.46C23.1296 11.676 22.8776 11.848 22.5896 11.976C22.3096 12.104 22.0056 12.168 21.6776 12.168C21.5656 12.168 21.4816 12.112 21.4256 12C21.3616 11.896 21.3296 11.78 21.3296 11.652C21.3296 11.516 21.3656 11.396 21.4376 11.292C21.5016 11.188 21.6096 11.136 21.7616 11.136ZM24.0296 4.308C23.8056 4.308 23.6136 4.228 23.4536 4.068C23.2936 3.908 23.2136 3.716 23.2136 3.492C23.2136 3.26 23.2896 3.068 23.4416 2.916C23.6016 2.756 23.7976 2.676 24.0296 2.676C24.2616 2.676 24.4536 2.756 24.6056 2.916C24.7656 3.068 24.8456 3.26 24.8456 3.492C24.8456 3.716 24.7656 3.908 24.6056 4.068C24.4536 4.228 24.2616 4.308 24.0296 4.308Z" fill="#2563EB"/>
<path d="M25.3221 12.168C25.2181 12.168 25.1341 12.12 25.0701 12.024C25.0061 11.928 24.9741 11.804 24.9741 11.652C24.9741 11.308 25.1181 11.136 25.4061 11.136C25.6621 11.136 25.9461 10.98 26.2581 10.668C26.5701 10.348 26.9341 9.836 27.3501 9.132L28.6341 6.96C28.6181 6.848 28.6101 6.728 28.6101 6.6C28.6101 6.2 28.6821 5.904 28.8261 5.712C28.9781 5.52 29.1021 5.404 29.1981 5.364C29.3341 5.332 29.4781 5.336 29.6301 5.376C29.7901 5.408 29.9341 5.464 30.0621 5.544C30.1901 5.624 30.2781 5.72 30.3261 5.832C30.2941 5.976 30.2341 6.148 30.1461 6.348C30.0581 6.548 29.9181 6.816 29.7261 7.152C29.7821 7.24 29.8541 7.328 29.9421 7.416C30.0301 7.504 30.1381 7.6 30.2661 7.704L31.1781 8.448C31.5061 8.712 31.7501 8.988 31.9101 9.276C32.0781 9.556 32.1621 9.872 32.1621 10.224C32.1621 10.648 32.0421 11.024 31.8021 11.352C31.8421 11.44 31.8621 11.544 31.8621 11.664C31.8621 11.816 31.8221 11.936 31.7421 12.024C31.6701 12.12 31.5661 12.168 31.4301 12.168C31.3021 12.168 31.1781 12.16 31.0581 12.144C30.9381 12.128 30.8061 12.108 30.6621 12.084C30.4461 12.14 30.2181 12.168 29.9781 12.168C29.6981 12.168 29.4181 12.124 29.1381 12.036C28.8581 11.956 28.5661 11.824 28.2621 11.64C28.2461 11.216 28.4061 10.904 28.7421 10.704C29.1821 10.992 29.5981 11.136 29.9901 11.136C30.3261 11.136 30.5941 11.048 30.7941 10.872C30.9941 10.688 31.0941 10.456 31.0941 10.176C31.0941 9.824 30.9021 9.496 30.5181 9.192L29.6061 8.472C29.4461 8.344 29.3021 8.212 29.1741 8.076L27.9741 10.104C27.5341 10.848 27.1101 11.38 26.7021 11.7C26.3021 12.012 25.8421 12.168 25.3221 12.168Z" fill="#2563EB"/>
<path d="M31.4592 12.168C31.3472 12.168 31.2552 12.12 31.1832 12.024C31.1112 11.928 31.0752 11.804 31.0752 11.652C31.0752 11.492 31.1152 11.368 31.1952 11.28C31.2752 11.192 31.3792 11.148 31.5072 11.148C32.1392 11.148 32.6952 10.984 33.1752 10.656C33.6632 10.328 34.0472 9.876 34.3272 9.3C34.6072 8.724 34.7472 8.064 34.7472 7.32V6.168H33.8592C33.8032 6.04 33.7752 5.88 33.7752 5.688C33.7752 5.496 33.8032 5.336 33.8592 5.208H34.7472V3.084C34.8992 3.028 35.0832 3 35.2992 3C35.4912 3 35.6752 3.028 35.8512 3.084V5.208H37.6392C37.7032 5.336 37.7352 5.496 37.7352 5.688C37.7352 5.88 37.7032 6.04 37.6392 6.168H35.8512V8.652C35.8512 9.452 35.9712 10.068 36.2112 10.5C36.4592 10.924 36.8072 11.136 37.2552 11.136C37.4872 11.136 37.6032 11.312 37.6032 11.664C37.6032 11.816 37.5632 11.936 37.4832 12.024C37.4112 12.12 37.3072 12.168 37.1712 12.168C36.6192 12.168 36.1592 12.004 35.7912 11.676C35.4232 11.34 35.1592 10.876 34.9992 10.284C34.6232 10.876 34.1312 11.34 33.5232 11.676C32.9232 12.004 32.2352 12.168 31.4592 12.168Z" fill="#2563EB"/>
<path d="M37.2538 11.136C37.4218 11.136 37.6018 11.084 37.7938 10.98C37.9858 10.876 38.1658 10.716 38.3338 10.5C38.5338 10.228 38.6778 9.916 38.7658 9.564C38.8618 9.212 38.9218 8.856 38.9458 8.496V6.336C39.0178 6.312 39.1018 6.292 39.1978 6.276C39.2938 6.26 39.3938 6.252 39.4978 6.252C39.6818 6.252 39.8618 6.28 40.0378 6.336V9.792C40.0378 10.216 40.1018 10.548 40.2298 10.788C40.3658 11.02 40.5898 11.136 40.9018 11.136C41.0378 11.136 41.1298 11.192 41.1778 11.304C41.2258 11.416 41.2498 11.536 41.2498 11.664C41.2498 11.792 41.2138 11.908 41.1418 12.012C41.0778 12.116 40.9698 12.168 40.8178 12.168C39.9858 12.168 39.4458 11.776 39.1978 10.992C39.0858 11.176 38.9658 11.332 38.8378 11.46C38.6218 11.676 38.3698 11.848 38.0818 11.976C37.8018 12.104 37.4978 12.168 37.1698 12.168C37.0578 12.168 36.9738 12.112 36.9178 12C36.8538 11.896 36.8218 11.78 36.8218 11.652C36.8218 11.516 36.8578 11.396 36.9298 11.292C36.9938 11.188 37.1018 11.136 37.2538 11.136ZM39.5218 4.308C39.2978 4.308 39.1058 4.228 38.9458 4.068C38.7858 3.908 38.7058 3.716 38.7058 3.492C38.7058 3.26 38.7818 3.068 38.9338 2.916C39.0938 2.756 39.2898 2.676 39.5218 2.676C39.7538 2.676 39.9458 2.756 40.0978 2.916C40.2578 3.068 40.3378 3.26 40.3378 3.492C40.3378 3.716 40.2578 3.908 40.0978 4.068C39.9458 4.228 39.7538 4.308 39.5218 4.308Z" fill="#2563EB"/>
<path d="M40.8143 12.168C40.7103 12.168 40.6263 12.12 40.5623 12.024C40.4983 11.928 40.4663 11.804 40.4663 11.652C40.4663 11.308 40.6103 11.136 40.8983 11.136C41.1543 11.136 41.3823 11.008 41.5823 10.752C41.7903 10.488 41.9703 10.052 42.1223 9.444L42.4823 8.04C42.8183 6.792 43.4583 6.168 44.4023 6.168C44.7623 6.168 45.0663 6.276 45.3143 6.492C45.5623 6.7 45.7343 6.984 45.8303 7.344C46.0543 6.968 46.3423 6.68 46.6943 6.48C47.0463 6.272 47.4383 6.168 47.8703 6.168C48.4943 6.168 48.9743 6.372 49.3103 6.78C49.6543 7.188 49.8263 7.76 49.8263 8.496V9.9C49.8263 10.364 49.8863 10.688 50.0063 10.872C50.1343 11.048 50.3183 11.136 50.5583 11.136C50.6703 11.136 50.7543 11.184 50.8103 11.28C50.8743 11.376 50.9063 11.504 50.9063 11.664C50.9063 11.792 50.8703 11.908 50.7983 12.012C50.7343 12.116 50.6263 12.168 50.4743 12.168C49.9863 12.168 49.5743 12.004 49.2383 11.676C48.9023 11.34 48.7343 10.792 48.7343 10.032V8.496C48.7343 7.632 48.3943 7.2 47.7143 7.2C47.3623 7.2 47.0503 7.34 46.7783 7.62C46.5143 7.9 46.3063 8.288 46.1543 8.784C46.0103 9.28 45.9383 9.856 45.9383 10.512V12C45.8583 12.024 45.7703 12.044 45.6743 12.06C45.5783 12.076 45.4863 12.084 45.3983 12.084C45.2063 12.084 45.0263 12.056 44.8583 12V8.172C44.8583 7.524 44.6743 7.2 44.3063 7.2C44.1383 7.2 43.9943 7.276 43.8743 7.428C43.7543 7.58 43.6503 7.824 43.5623 8.16L43.1183 9.888C42.9103 10.68 42.6223 11.26 42.2543 11.628C41.8863 11.988 41.4063 12.168 40.8143 12.168Z" fill="#2563EB"/>
<path d="M50.5546 11.136C50.8266 11.136 51.0906 11.004 51.3466 10.74C51.6106 10.468 51.8306 10.104 52.0066 9.648C51.9986 9.536 51.9946 9.424 51.9946 9.312C51.9946 8.704 52.1146 8.164 52.3546 7.692C52.5946 7.22 52.9186 6.848 53.3266 6.576C53.7426 6.304 54.2146 6.168 54.7426 6.168C55.0226 6.168 55.2986 6.224 55.5706 6.336C55.8426 6.44 56.0706 6.584 56.2546 6.768V6.276C56.3266 6.252 56.4106 6.232 56.5066 6.216C56.6026 6.2 56.7026 6.192 56.8066 6.192C56.9986 6.192 57.1786 6.22 57.3466 6.276V9.792C57.3466 10.216 57.4106 10.548 57.5386 10.788C57.6746 11.02 57.8986 11.136 58.2106 11.136C58.2986 11.136 58.3946 11.116 58.4986 11.076C58.6026 11.036 58.7106 10.976 58.8226 10.896C58.9586 10.96 59.0706 11.072 59.1586 11.232C59.2466 11.384 59.2866 11.536 59.2786 11.688C59.1506 11.832 58.9866 11.948 58.7866 12.036C58.5866 12.124 58.3706 12.168 58.1386 12.168H58.1266C57.3426 12.168 56.8186 11.816 56.5546 11.112C56.3226 11.44 56.0306 11.7 55.6786 11.892C55.3346 12.076 54.9506 12.168 54.5266 12.168C54.0626 12.168 53.6506 12.068 53.2906 11.868C52.9386 11.66 52.6506 11.376 52.4266 11.016C51.9306 11.784 51.2786 12.168 50.4706 12.168C50.3666 12.168 50.2826 12.12 50.2186 12.024C50.1546 11.928 50.1226 11.804 50.1226 11.652C50.1226 11.308 50.2666 11.136 50.5546 11.136ZM53.1106 9.312C53.1106 9.88 53.2386 10.328 53.4946 10.656C53.7586 10.976 54.1186 11.136 54.5746 11.136C55.0786 11.136 55.4826 10.952 55.7866 10.584C56.0986 10.208 56.2546 9.716 56.2546 9.108V7.92C56.0946 7.704 55.8906 7.532 55.6426 7.404C55.3946 7.268 55.1386 7.2 54.8746 7.2C54.5306 7.2 54.2266 7.292 53.9626 7.476C53.6986 7.66 53.4906 7.912 53.3386 8.232C53.1866 8.544 53.1106 8.904 53.1106 9.312Z" fill="#2563EB"/>
</svg>
